<svg id="Ebene_1" data-name="Ebene 1" xmlns="http://www.w3.org/2000/svg" width="96" height="96" viewBox="0 0 96 96">
  <defs>
    <style>
      .cls-1 {
        fill: #5b6166;
      }
    </style>
  </defs>
  <g id="actAR">
    <g>
      <g>
        <path class="cls-1" d="M24.12,4H38l9.78,39H40.68L38.4,35.34H23.34L21.3,43H14.22Zm.72,25H37L32.4,10.09H29.58Z"/>
        <path class="cls-1" d="M68.52,29.7H59.28V43h-7V4H67.92C77.4,4,82,7.66,82,16.57c0,5.86-2.28,9.24-6.54,11.21L82,43H74.22Zm-.6-19.39H59.28V23.39H68c4.86,0,6.66-2.71,6.66-6.71C74.7,12.4,72.48,10.31,67.92,10.31Z"/>
      </g>
      <g>
        <path class="cls-1" d="M24.12,4H38l9.78,39H40.68L38.4,35.34H23.34L21.3,43H14.22Zm.72,25H37L32.4,10.09H29.58Z"/>
        <path class="cls-1" d="M68.52,29.7H59.28V43h-7V4H67.92C77.4,4,82,7.66,82,16.57c0,5.86-2.28,9.24-6.54,11.21L82,43H74.22Zm-.6-19.39H59.28V23.39H68c4.86,0,6.66-2.71,6.66-6.71C74.7,12.4,72.48,10.31,67.92,10.31Z"/>
      </g>
    </g>
    <path class="cls-1" d="M13.16,48.62A7.28,7.28,0,0,0,11,53.87v29.9A7.28,7.28,0,0,0,13.16,89,6.17,6.17,0,0,0,18,91H77.46A7.08,7.08,0,0,0,85,83.77V53.87a7.28,7.28,0,0,0-2.16-5.25C81.39,47.14,79.33,47,77.36,47H17.94c-2,0-3.33.14-4.78,1.62ZM17,73.56v-9a.82.82,0,0,1,.92-.94c.62,0,1.08.16,1.08.79v9.43A1.06,1.06,0,0,1,17.92,75,.82.82,0,0,1,17,74ZM81.42,66a4.72,4.72,0,0,1,0,6.59,4.45,4.45,0,0,1-6.44,0A4.72,4.72,0,0,1,75,66a4.47,4.47,0,0,1,6.44,0ZM69.17,52a1.76,1.76,0,0,1,1.29.56A1.87,1.87,0,0,1,71,53.89V84.11a1.85,1.85,0,0,1-.54,1.33,1.76,1.76,0,0,1-1.29.56H25.83a1.76,1.76,0,0,1-1.29-.56A1.85,1.85,0,0,1,24,84.11V53.89a1.85,1.85,0,0,1,.54-1.33A1.76,1.76,0,0,1,25.83,52Zm-.1.52"/>
    <path class="cls-1" d="M53,77.54V79a14.36,14.36,0,0,1-6.41,1.35l5.67-3.27A.49.49,0,0,1,53,77.54Z"/>
    <path class="cls-1" d="M53,74.43V71.5a.48.48,0,0,0-.73-.42l-11,6.35a.48.48,0,0,0-.25.43V79a14.24,14.24,0,0,0,2.91,1l8.84-5.1A.48.48,0,0,0,53,74.43Z"/>
    <path class="cls-1" d="M59.53,58.86,57,56.43A1.52,1.52,0,0,0,56,56H49.3a.29.29,0,0,0-.3.3v1.23a1.5,1.5,0,1,1-3,0V56.31a.31.31,0,0,0-.31-.31H39.05a1.51,1.51,0,0,0-1.07.43l-2.52,2.45A1.57,1.57,0,0,0,35,60v6.49A1.53,1.53,0,0,0,36.53,68H58.47A1.53,1.53,0,0,0,60,66.48V60A1.54,1.54,0,0,0,59.53,58.86Z"/>
    <path class="cls-1" d="M48.32,70H41.49a.49.49,0,0,0-.49.49v3.94a.48.48,0,0,0,.73.42l6.83-3.93A.49.49,0,0,0,48.32,70Z"/>
  </g>
</svg>
