<svg id="Ebene_1" data-name="Ebene 1" xmlns="http://www.w3.org/2000/svg" width="96" height="96" viewBox="0 0 96 96">
  <defs>
    <style>
      .transparent-medium {
        fill: #acafb2;
        opacity: 0.5;
      }

      .solid-dark {
        fill: #5b6166;
      }
    </style>
  </defs>
  <g id="actHoloLens">
    <path class="transparent-medium" d="M48,57.59c-3.78,0-12.73,0-36.58-2.93a.61.61,0,0,0-.59.85c3,7.63,8.33,10.4,16.52,13.52,11.25,4.29,15.37.49,16.93-1.23a5.12,5.12,0,0,1,7.44,0c1.56,1.72,5.68,5.52,16.92,1.23,8.19-3.12,13.55-5.89,16.52-13.52a.61.61,0,0,0-.59-.85C60.69,57.58,51.74,57.59,48,57.59Z"/>
    <path class="solid-dark" d="M5.65,50.82A2.47,2.47,0,0,1,4.07,51a1.54,1.54,0,0,1-.76-1.14,2.73,2.73,0,0,0-.1-.48A24.42,24.42,0,0,1,3,46.68c-.11-1.66-.19-3.31-.24-5,0-1.11-.08-2.22,0-3.33a3.23,3.23,0,0,1,.85-2.54,6.54,6.54,0,0,1,1.78-1c.21-.09,1.64-.57,1.93-.67a2.57,2.57,0,0,0,0,.33A36.31,36.31,0,0,0,7,40.05a53.94,53.94,0,0,0,.72,8.7c.08.47.3,1.07-.17,1.41l-.25.15A12,12,0,0,1,5.65,50.82Zm84.7,0a2.47,2.47,0,0,0,1.58.18,1.54,1.54,0,0,0,.76-1.14,2.73,2.73,0,0,1,.1-.48,24.42,24.42,0,0,0,.26-2.7c.11-1.66.19-3.31.24-5,0-1.11.08-2.22,0-3.33a3.23,3.23,0,0,0-.85-2.54,6.54,6.54,0,0,0-1.78-1c-.21-.09-1.64-.57-1.93-.67a2.57,2.57,0,0,1,.05.33A36.31,36.31,0,0,1,89,40.05a53.94,53.94,0,0,1-.72,8.7c-.08.47-.3,1.07.17,1.41l.25.15A12,12,0,0,0,90.35,50.82Zm-6.18,1.23a1.61,1.61,0,0,0,1.39-1.23,44.4,44.4,0,0,0,.75-4.48c1-8.48.74-12.62,0-12.88s-4.93-2-17-3S48,29.68,48,29.68s-9.28-.18-21.35.81-16.26,2.7-17,3-1,4.4,0,12.88c.2,1.64.45,3.12.75,4.48a1.61,1.61,0,0,0,1.39,1.23C35.51,54.66,44.29,54.66,48,54.66S60.42,54.66,84.17,52.05Z"/>
  </g>
</svg>
