<svg id="Ebene_1" data-name="Ebene 1" xmlns="http://www.w3.org/2000/svg" width="96" height="96" viewBox="0 0 96 96">
  <defs>
    <style>
      .solid-dark {
        fill: #5b6166;
      }

      .border-thick {
        fill: none;
        stroke: #5b6166;
        stroke-linejoin: round;
        stroke-width: 3px;
      }
    </style>
  </defs>
  <g id="actLabels">
    <path class="solid-dark" d="M55,32H40a3,3,0,0,1,0-6H55a3,3,0,0,1,0,6Zm21-3a3,3,0,0,0-3-3H65a3,3,0,0,0,0,6h8A3,3,0,0,0,76,29ZM34,29a3,3,0,0,0-3-3H23a3,3,0,0,0,0,6h8A3,3,0,0,0,34,29ZM58,42a3,3,0,0,0-3-3H40a3,3,0,0,0,0,6H55A3,3,0,0,0,58,42Zm18,0a3,3,0,0,0-3-3H65a3,3,0,0,0,0,6h8A3,3,0,0,0,76,42ZM34,42a3,3,0,0,0-3-3H23a3,3,0,0,0,0,6h8A3,3,0,0,0,34,42ZM58,55a3,3,0,0,0-3-3H40a3,3,0,0,0,0,6H55A3,3,0,0,0,58,55Zm18,0a3,3,0,0,0-3-3H65a3,3,0,0,0,0,6h8A3,3,0,0,0,76,55ZM34,55a3,3,0,0,0-3-3H23a3,3,0,0,0,0,6h8A3,3,0,0,0,34,55ZM58,68a3,3,0,0,0-3-3H40a3,3,0,0,0,0,6H55A3,3,0,0,0,58,68Zm18,0a3,3,0,0,0-3-3H65a3,3,0,0,0,0,6h8A3,3,0,0,0,76,68ZM34,68a3,3,0,0,0-3-3H23a3,3,0,0,0,0,6h8A3,3,0,0,0,34,68Z"/>
    <rect class="border-thick" x="10.5" y="15.5" width="76" height="66"/>
  </g>
</svg>
