<svg id="Ebene_1" data-name="Ebene 1" xmlns="http://www.w3.org/2000/svg" width="96" height="96" viewBox="0 0 96 96">
  <defs>
    <style>
      .solid-light {
        fill: #d4d7d8;
      }

      .solid-red {
        fill: #ed1c24;
      }
    </style>
  </defs>
  <g id="actOriginalposition">
    <path class="solid-light" d="M16.36,12a5,5,0,0,0-5,5V39.54c0,2.37,2.82,3.91,4.86,3.91H34V85a5,5,0,0,0,5,5H64.25a5,5,0,0,0,5-5V43.45H86.41a4.07,4.07,0,0,0,4.22-4V17a5,5,0,0,0-5-5Z"/>
    <path class="solid-red" d="M91,75H84.85A7.54,7.54,0,0,0,79,69.15V63H76v6.15A7.54,7.54,0,0,0,70.15,75H64v3h6.15A7.54,7.54,0,0,0,76,83.85V90h3V83.85A7.54,7.54,0,0,0,84.85,78H91ZM77.5,81A4.5,4.5,0,1,1,82,76.5,4.51,4.51,0,0,1,77.5,81ZM79,76.5A1.5,1.5,0,1,1,77.5,75,1.5,1.5,0,0,1,79,76.5Z"/>
  </g>
</svg>
