<svg id="Ebene_1" data-name="Ebene 1" xmlns="http://www.w3.org/2000/svg" width="96" height="96" viewBox="0 0 96 96">
  <defs>
    <style>
      .solid-dark {
        fill: #5b6166;
      }

      .solid-light {
        fill: #d4d7d8;
      }
    </style>
  </defs>
  <g id="actOppose">
    <path class="solid-dark" d="M8.72,16.25a4,4,0,0,0-4,4V38.14C4.75,40,7,41.25,8.61,41.25H22.75v33a4,4,0,0,0,4,4H46.78a4,4,0,0,0,4-4v-33H64.39a3.24,3.24,0,0,0,3.36-3.18V20.22a4,4,0,0,0-4-4Z"/>
    <path class="solid-light" d="M58.5,59.35a2.2,2.2,0,0,0-2.2,2.2v10c0,1,1.24,1.72,2.14,1.72h7.84V91.55a2.2,2.2,0,0,0,2.2,2.2H79.62a2.2,2.2,0,0,0,2.2-2.2V73.22h7.57a1.79,1.79,0,0,0,1.86-1.76V61.55a2.2,2.2,0,0,0-2.2-2.2Z"/>
  </g>
</svg>
