<svg id="Ebene_1" data-name="Ebene 1" xmlns="http://www.w3.org/2000/svg" width="96" height="96" viewBox="0 0 96 96">
  <defs>
    <style>
      .solid-dark {
        fill: #5b6166;
      }
    </style>
  </defs>
  <g id="actZoomall">
    <polygon class="solid-dark" points="28 35 22 35 22 20 36 20 36 26 28 26 28 35"/>
    <polygon class="solid-dark" points="36 54 22 54 22 40 28 40 28 48 36 48 36 54"/>
    <polygon class="solid-dark" points="55 54 41 54 41 48 49 48 49 40 55 40 55 54"/>
    <polygon class="solid-dark" points="55 35 49 35 49 26 41 26 41 20 55 20 55 35"/>
    <path class="solid-dark" d="M87.65,81.49,66,59.85a6.71,6.71,0,0,0-1.5-1.13A33.61,33.61,0,0,0,72,37.5C72,19,57.2,4,39,4S6,19,6,37.5,20.8,71,39,71a32.39,32.39,0,0,0,15.7-4,6.75,6.75,0,0,0,1.61,2.59L78,91.19a6.86,6.86,0,1,0,9.7-9.7ZM12,37.5C12,22.21,24.11,9.78,39,9.78S66,22.21,66,37.5,53.89,65.23,39,65.23,12,52.79,12,37.5Z"/>
  </g>
</svg>
