<svg id="Ebene_1" data-name="Ebene 1" xmlns="http://www.w3.org/2000/svg" width="96" height="96" viewBox="0 0 96 96">
  <defs>
    <style>
      .border-thick {
        fill: none;
        stroke: #5b6166;
        stroke-linejoin: round;
        stroke-width: 3px;
      }

      .solid-dark {
        fill: #5b6166;
      }
    </style>
  </defs>
  <g id="act2D">
    <path class="border-thick" d="M29.47,10.5a4,4,0,0,0-4,4V32.39c0,1.89,2.24,3.11,3.86,3.11H43.5v33a4,4,0,0,0,4,4H67.53a4,4,0,0,0,4-4v-33H85.14a3.24,3.24,0,0,0,3.36-3.18V14.47a4,4,0,0,0-4-4Z"/>
    <line class="border-thick" x1="32" y1="86.5" x2="79" y2="86.5"/>
    <polygon class="solid-dark" points="36.43 92.06 34.07 86.5 36.43 80.94 23.27 86.5 36.43 92.06"/>
    <polygon class="solid-dark" points="90 86.5 75.08 92.6 78.62 86.5 75.08 80.4 90 86.5"/>
    <line class="border-thick" x1="10.5" y1="18" x2="10.5" y2="64"/>
    <polygon class="solid-dark" points="10.5 7.7 4.4 22.62 10.5 19.08 16.6 22.62 10.5 7.7"/>
    <polygon class="solid-dark" points="10.5 74.62 4.4 59.7 10.5 63.24 16.6 59.7 10.5 74.62"/>
  </g>
</svg>
