<svg id="Ebene_1" data-name="Ebene 1" xmlns="http://www.w3.org/2000/svg" width="96" height="96" viewBox="0 0 96 96">
  <defs>
    <style>
      .solid-dark {
        fill: #5b6166;
      }
    </style>
  </defs>
  <g id="actAnaglyph">
    <path class="solid-dark" d="M31.88,16.22a10,10,0,0,1,1.7.93c2.23,1.91,2.72,4.61,2.69,7.47a4.27,4.27,0,0,1-.67,1.87c-.46.82-1.1.9-1.77.23A4.14,4.14,0,0,1,33,25.48c-.54-1.14-1-2.32-1.54-3.57-.52.32-1,.59-1.39.87-1.47.94-2.88,2-4.41,2.8a18.4,18.4,0,0,0-7.18,7c-1.55,2.5-2,2.22-3.74,4.69.61.36,1.17.71,1.74,1Q35.77,49,55.06,59.63A2.33,2.33,0,0,0,58,59.49C61.1,57,78.52,44.14,85.26,39.58a46.07,46.07,0,0,1,5-2.83c2.18-1.11,4.45.83,4.67,3.21.09,1,.2,3.56.19,3.71a9.31,9.31,0,0,1-1.92,4.74,3.62,3.62,0,0,1-1.07,1c-.64.39-1.23.09-1.33-.7-.2-1.42-.32-2.86-.48-4.29,0-.34-.1-.68-.16-1.09a2.84,2.84,0,0,0-.42.2c-3.59,2.54-7.2,5.06-10.75,7.66A8.21,8.21,0,0,0,77,53.27c-3.45,5.12-10.86,16.19-11.2,16.5C64,71.51,62.07,73.17,60.26,75a21.17,21.17,0,0,1-5.32,4h-.52a6.29,6.29,0,0,1-1.49-.81c-.55-.53-.93-.33-1.28.14a.77.77,0,0,1-1.23.22Q40.14,72,29.85,65.58a3.17,3.17,0,0,1-1.07-1c-1.22-2.15-2.33-4.37-3.6-6.47A10.15,10.15,0,0,0,23,55.58c-.74-.63-1.12-.38-1.41.6-.12.44-.23.89-.39,1.32-.47,1.24-1.3,1.52-2.34.79C14.93,55.51,11,52.74,7.09,49.92a8.35,8.35,0,0,1-1.45-1.71c-.37-.46-.6-1.14-1-1.39a1.75,1.75,0,0,1-.89-1.33Q2.41,39.81,1.1,34.12C.76,32.63.75,32.64,2,32q7.85-4.23,15.7-8.48L31.2,16.22ZM47.35,66.54c-.14-.86-.25-1.69-.4-2.5A9.06,9.06,0,0,0,42,57.2c-1.74-.89-3.43-1.9-5.16-2.84-1.36-.75-2.73-1.5-4.12-2.2-1.72-.87-2.95,0-3,2a15.37,15.37,0,0,0,0,1.92A10.89,10.89,0,0,0,34,64.27c2.07,1.55,4.34,2.78,6.54,4.12a33.23,33.23,0,0,0,3.77,2.11c1.36.6,2.32,0,2.7-1.55A20.16,20.16,0,0,0,47.35,66.54Zm-36.58-27c-.92-.6-1.87-1.17-2.82-1.71s-1.68-.14-1.56,1,.38,2.57.63,3.84a10.25,10.25,0,0,0,4.57,6.79c1.42.95,2.82,1.93,4.27,2.82.45.28,1.18.59,1.5.38a2.39,2.39,0,0,0,.57-1.6,14,14,0,0,0-1.27-5.79A30,30,0,0,0,15,42.58c-.7-1.38-2.06-1.63-3.13-2.38C11.69,40.09,11,39.65,10.77,39.52Z"/>
  </g>
</svg>
