<svg id="Ebene_1" data-name="Ebene 1" xmlns="http://www.w3.org/2000/svg" width="96" height="96" viewBox="0 0 96 96">
  <defs>
    <style>
      .solid-dark {
        fill: #5b6166;
      }

      .solid-medium, .transparent-medium {
        fill: #acafb2;
      }

      .transparent-medium {
        opacity: 0.5;
      }
    </style>
  </defs>
  <g id="actBluebox">
    <polygon class="solid-dark" points="63.87 81 90.19 61.37 87.27 53.85 48 49.25 8.32 58.02 5.81 61.37 12.08 65.96 63.87 81"/>
    <polygon class="transparent-medium" points="58.86 75.15 5.81 61.37 8.32 58.02 60.95 70.56 58.86 75.15"/>
    <polygon class="solid-medium" points="36.72 52.18 9.29 58.3 60.95 70.56 82.25 58.86 36.72 52.18"/>
    <polygon class="transparent-medium" points="62.2 15 8.32 20.85 36.72 52.18 81.83 58.02 62.2 15"/>
    <polygon class="solid-dark" points="53.13 34.13 61.84 31 61.42 46.12 53 50.82 53.13 34.13"/>
    <polygon class="solid-dark" points="38.25 30.11 47.14 27.58 59.41 29.27 51.25 32.2 38.25 30.11"/>
    <polygon class="solid-dark" points="51.09 34.13 50.97 50.82 37.59 47.5 37.2 31.9 51.09 34.13"/>
  </g>
</svg>
