<svg id="Ebene_1" data-name="Ebene 1" xmlns="http://www.w3.org/2000/svg" width="96" height="96" viewBox="0 0 96 96">
  <defs>
    <style>
      .solid-dark {
        fill: #5b6166;
      }
    </style>
  </defs>
  <g id="actCameraBackground">
    <path class="solid-dark" d="M44.38,22.16A7.28,7.28,0,0,0,39.13,20H9.23A7.28,7.28,0,0,0,4,22.16,6.17,6.17,0,0,0,2,27V86.46a7.27,7.27,0,0,0,2,5.38A7.28,7.28,0,0,0,9.23,94h29.9a7.28,7.28,0,0,0,5.25-2.16C45.86,90.39,46,88.33,46,86.36V26.94c0-2-.14-3.33-1.62-4.78ZM19.44,26h9a.82.82,0,0,1,.94.92c0,.62-.16,1.08-.79,1.08H19.12A1.06,1.06,0,0,1,18,26.92.82.82,0,0,1,19,26ZM27,90.42a4.72,4.72,0,0,1-6.59,0,4.45,4.45,0,0,1,0-6.44A4.72,4.72,0,0,1,27,84a4.47,4.47,0,0,1,0,6.44ZM41,78.17a1.76,1.76,0,0,1-.56,1.29,1.87,1.87,0,0,1-1.33.54H8.89a1.85,1.85,0,0,1-1.33-.54A1.76,1.76,0,0,1,7,78.17V34.83a1.76,1.76,0,0,1,.56-1.29A1.85,1.85,0,0,1,8.89,33H39.11a1.85,1.85,0,0,1,1.33.54A1.76,1.76,0,0,1,41,34.83Zm-.52-.1"/>
    <path class="solid-dark" d="M30,65.65v1.49a14.51,14.51,0,0,1-6.41,1.36l5.67-3.28A.49.49,0,0,1,30,65.65Z"/>
    <path class="solid-dark" d="M30,62.54V59.61a.49.49,0,0,0-.73-.42l-11,6.35A.48.48,0,0,0,18,66v1.12a14.84,14.84,0,0,0,2.91,1L29.75,63A.47.47,0,0,0,30,62.54Z"/>
    <path class="solid-dark" d="M36.53,46.86,34,44.43A1.52,1.52,0,0,0,33,44H26.3a.29.29,0,0,0-.3.3v1.23a1.5,1.5,0,1,1-3,0V44.31a.31.31,0,0,0-.31-.31H16.05a1.51,1.51,0,0,0-1.07.43l-2.52,2.45A1.57,1.57,0,0,0,12,48v6.49A1.53,1.53,0,0,0,13.53,56H35.47A1.53,1.53,0,0,0,37,54.48V48A1.54,1.54,0,0,0,36.53,46.86Z"/>
    <path class="solid-dark" d="M25.32,58H18.49a.49.49,0,0,0-.49.49v3.94a.48.48,0,0,0,.73.42l6.83-3.93A.49.49,0,0,0,25.32,58Z"/>
    <path class="solid-dark" d="M89.44,19A33.84,33.84,0,0,0,77.07,6.57a34.15,34.15,0,0,0-34.13,0A33.7,33.7,0,0,0,32.51,16H40a28.11,28.11,0,0,1,6.42-4.82,6.57,6.57,0,0,1,1,0,1.78,1.78,0,0,1,.67.23,3.55,3.55,0,0,1,.64.48,6.29,6.29,0,0,0,.51.45,1.11,1.11,0,0,0-.22-.8c0-.18.38-.36,1-.53a2.5,2.5,0,0,1,1.33,0,11.76,11.76,0,0,0-.89-1.11l-.22.22c-.23-.2-.86-.1-1.86.31l-.44.25a6.17,6.17,0,0,1-.58.29,1.18,1.18,0,0,1-.53,0,25.08,25.08,0,0,1,4.16-1.82,5,5,0,0,1,.45.38,5.88,5.88,0,0,0,.48.42c-.09-.06-.14,0-.17.09a1.14,1.14,0,0,0,0,.89.81.81,0,0,0,.59.35,3.26,3.26,0,0,0,.91-.05,7,7,0,0,1,.71-.08l.44,0c.95.09,1.31,0,1.11-.26a2.69,2.69,0,0,1,.31.73,1.87,1.87,0,0,0,.4.77c.14-.12.17-.32.09-.62a.72.72,0,0,1,0-.62.48.48,0,0,1,.26-.18l.51-.2.38-.15c.17-.12.06-.33-.36-.62a2.73,2.73,0,0,0-.37-.14,3.37,3.37,0,0,1-.51-.17,2.4,2.4,0,0,1-.47-.25.38.38,0,0,1-.22-.35,1.25,1.25,0,0,1,.24-.51,1.21,1.21,0,0,1,.87-.18,2.2,2.2,0,0,1,.91.22c.79.45.91.85.35,1.2a3.08,3.08,0,0,1,1.06.36c.42.2.58.42.49.66.24-.44.47-.66.71-.66s.28.22.42.59a3.48,3.48,0,0,0,.24.6c.24.33.47.4.71.22a3.41,3.41,0,0,0,.73-.77c.25-.34.39-.5.42-.47-.3-.12-.32-.23-.09-.35a1.4,1.4,0,0,1,1.2-.22,1.69,1.69,0,0,1,.35.4c.27.53.22.78-.13.75a1,1,0,0,1,.33.89c0,.35-.27.51-.69.48a1.54,1.54,0,0,1-.64-.22,1.78,1.78,0,0,0-.64-.24,1.06,1.06,0,0,0-.62.24,5.07,5.07,0,0,0-.47.76,3.39,3.39,0,0,1-.51.75,2.61,2.61,0,0,1-2.21.49c.09,0,.08.09,0,.26a5.17,5.17,0,0,1-.42.6l-.31.38a2.09,2.09,0,0,0-.53,1c0,.05,0,.26,0,.59a2.24,2.24,0,0,1-.18.78c.36-.09.64.09.85.53s.17.64,0,.67a5.1,5.1,0,0,1,2.56.18c1.07.38,1.67.76,1.82,1.15.18-.27.6-.28,1.28,0,.27.15.5.6.71,1.33a2.81,2.81,0,0,0,.6,1.15.72.72,0,0,0,.91.27l.13-.09.29-.15.24-.18a.36.36,0,0,0,.15-.2.17.17,0,0,0-.06-.18,1.6,1.6,0,0,1-.47-.73.93.93,0,0,1,.07-.82,3.24,3.24,0,0,1,.71-.53,1.64,1.64,0,0,0,.71-.71.78.78,0,0,0-.44-1c-.42-.25-.62-.48-.62-.69a.86.86,0,0,1,.28-.53.69.69,0,0,0,.25-.58,2.36,2.36,0,0,0-.16-.55,3.83,3.83,0,0,1-.18-.62.69.69,0,0,1,.2-.47,2.75,2.75,0,0,1,1.46,0,5.45,5.45,0,0,1,1.51.42,4,4,0,0,0,.57.27c.3.12.56,0,.78.13a.75.75,0,0,0,.37.13h-.22c.21,1,.34.63.38.87a.6.6,0,0,1-.33.65,1.64,1.64,0,0,1,.71.2c.47.18.49.37,0,.52a3,3,0,0,1,.38-.08.94.94,0,0,0,.37-.12,1.08,1.08,0,0,0,.22-.15.57.57,0,0,1,.2-.13l.2-.05a.39.39,0,0,1,.27.07s.09-.07.2-.22a4.59,4.59,0,0,1,.33-.44c.12-.15.22-.22.31-.22a.33.33,0,0,1,.24.1,1.05,1.05,0,0,1,.18.25c0,.09.09.18.13.29s.08.18.11.24a1.16,1.16,0,0,0,.42.46,1.24,1.24,0,0,1,.42.47c0,.09.09.31.18.67a1.5,1.5,0,0,0,.35.73,1.81,1.81,0,0,0,.67.33.68.68,0,0,0,.39-.05,1.18,1.18,0,0,1,.51,0c.14,0,.2.15.2.35.18-.17.27-.29.27-.35a1.83,1.83,0,0,0,.29.93.77.77,0,0,0,.77.31l-.09,1c-.09.15-.31.25-.66.33a2.23,2.23,0,0,0-.67.2,3.2,3.2,0,0,0-.64.53c-.34.33-.48.52-.42.58A2.15,2.15,0,0,0,75,23.72a11.12,11.12,0,0,0-2.3.53,3.12,3.12,0,0,0-1,.67,1.23,1.23,0,0,0-.16.31,4.3,4.3,0,0,1-.22.48c-.07.15-.14.23-.2.23a1.14,1.14,0,0,0,.6-.42,2.31,2.31,0,0,1,.42-.43A2.4,2.4,0,0,1,74,24.56c.65.18.75.42.31.71a.67.67,0,0,1-.47.07,1.79,1.79,0,0,0-.51,0,2.18,2.18,0,0,1,.67.25.29.29,0,0,1,.13.42c.47.26.56.56.26.89a1.59,1.59,0,0,1-1.37.48q.14,0,0,.18l-.75.49-.58.22a1.53,1.53,0,0,0-.66.4.84.84,0,0,0-.13.53,2.3,2.3,0,0,1,0,.53c0,.12-.14.15-.35.09-.09.18-.36.32-.82.42a1.51,1.51,0,0,0-.91.46.51.51,0,0,1,0,.71.57.57,0,0,1-.93-.08.61.61,0,0,0-.33.44.89.89,0,0,1-.33.49c.2.32.17.56-.09.71a.66.66,0,0,1,.2.09,2.35,2.35,0,0,1,.33.22.6.6,0,0,0,.22.13c-.12.26-.28.4-.49.4.18.47,0,1-.66,1.55a1.8,1.8,0,0,1-.55.35,7,7,0,0,1-.69.29,1.66,1.66,0,0,0-.36.16,3.05,3.05,0,0,0-.66.82,1,1,0,0,0-.07.82.82.82,0,0,0,.71.53L65,38.7v.8l.16.36c0,.2.11.39.12.55a5.34,5.34,0,0,1,0,.62c0,.25-.07.4-.19.42a.75.75,0,0,1-.47-.09q-.36-.16-.84-2a3.14,3.14,0,0,0-.53-1.06,1.36,1.36,0,0,1-.38.29c-.1,0-.17,0-.22,0l-.24-.2-.31-.24a2.4,2.4,0,0,0-.78-.22,1.57,1.57,0,0,1-.68-.22c-.71.53-1.14.39-1.29-.4a.94.94,0,0,0,0,.59c.07.26.11.4.11.43-.21.38-.53.41-1,.08-.17-.17-.58-.19-1.21-.06a2.52,2.52,0,0,1-1.26.06s.08.05.17.14l.18.13a.68.68,0,0,1-.13.27.19.19,0,0,1-.18.06h-.2l-.2.07a2.84,2.84,0,0,0-.44.46,2.36,2.36,0,0,1-.4.42,2.78,2.78,0,0,1,.24,1.09c0,.25-.06.62-.13,1.11a8.89,8.89,0,0,0-.11,1.17A4.09,4.09,0,0,0,55.29,45a2.81,2.81,0,0,0,1,1.29,3.72,3.72,0,0,0,2.12.13,1.09,1.09,0,0,0,.4-.31,1.53,1.53,0,0,0,.22-.51c.06-.22.1-.37.13-.46a1.23,1.23,0,0,1,1.15-.89,1.31,1.31,0,0,1,.78.11.39.39,0,0,1,.2.42,2.27,2.27,0,0,1-.18.56c-.09.19-.2.4-.33.64a2.4,2.4,0,0,0-.24.53,6.75,6.75,0,0,0-.16,1,4.53,4.53,0,0,1-.11.77,2.37,2.37,0,0,0,.66,0,1.28,1.28,0,0,1,.07-.29.93.93,0,0,0,.07-.24.89.89,0,0,0,.7.4.66.66,0,0,0,.71-.36c.06.09.24.31.54.67a1.94,1.94,0,0,1,.48.88c0,.12.09.31.18.58a1.11,1.11,0,0,1,.09.56q0,.15-.45.15a.21.21,0,0,0-.22.13.65.65,0,0,0,0,.34,2.29,2.29,0,0,0,.12.37,3,3,0,0,0,.17.38.66.66,0,0,1,.11.24,1.49,1.49,0,0,0,2.17.8c0,.86-.2,1.33-.62,1.42-.23.05-.5-.09-.79-.45s-.4-.65-.31-.88a.63.63,0,0,1-.31.39,5,5,0,0,0-.8-.66,4.5,4.5,0,0,1-.8-.67c-.06-.08-.14-.21-.24-.37s-.23-.38-.4-.64a4.48,4.48,0,0,1-.35-.69c-.08-.2-.08-.3,0-.33a3.07,3.07,0,0,1-2.44-.49,4.31,4.31,0,0,1-.93-.93A1.44,1.44,0,0,0,56.38,48a5.61,5.61,0,0,0-.6.16,2.52,2.52,0,0,1-.64.11,2,2,0,0,1-.71-.18,6.25,6.25,0,0,1-1-.51,5.31,5.31,0,0,0-.82-.46l-.58-.31-.7-.36a2.21,2.21,0,0,1-.56-.42,1.39,1.39,0,0,1-.37-.6,7.15,7.15,0,0,1-.22-1.06,3,3,0,0,0-.5-1.15c-.14-.24.27-.48-.73-.72V68.38a37.54,37.54,0,0,0,10.86,1.7A33.52,33.52,0,0,0,77,65.52,34.05,34.05,0,0,0,89.41,53.13,33.45,33.45,0,0,0,94,36,33.35,33.35,0,0,0,89.44,19Zm-24,44.52a3,3,0,0,1-.08-.71,1.62,1.62,0,0,1,.31-1,2.08,2.08,0,0,0,.35-.9c-.47-.12-.65-.51-.53-1.16A3.71,3.71,0,0,1,66.73,58a2,2,0,0,0,.53-2.13A12.22,12.22,0,0,1,67,54.16a14.92,14.92,0,0,0-.18-1.55c0,.09.14.17.43.24a.81.81,0,0,1,.51.29,3.68,3.68,0,0,0,.22-.49,1.86,1.86,0,0,1,.26-.53,1.33,1.33,0,0,1,.38-.33,3.33,3.33,0,0,1,.37-.25,2.78,2.78,0,0,0,.4-.28c.21-.17.38-.29.51-.38a1.37,1.37,0,0,1,.53-.2.38.38,0,0,1,.47.2c.14.18.11.45-.09.82s-.21.63,0,.78a3.51,3.51,0,0,0,.09-.58,1.06,1.06,0,0,1,.26-.67,1.09,1.09,0,0,1,.51-.31.66.66,0,0,1,.44.07,3.74,3.74,0,0,1,.47.31,1.26,1.26,0,0,0,.48.24,5.54,5.54,0,0,1,1.6,1,.08.08,0,0,1,0-.11.47.47,0,0,1,.18-.14l.24-.13a1.33,1.33,0,0,1,.24-.11l.13,0a1.41,1.41,0,0,0,.44-.05.51.51,0,0,1,.38.09l.33.2.31.25a2,2,0,0,1,.31.26l.49.31.55.36a1.14,1.14,0,0,1,.36.39.9.9,0,0,1,.11.58,7.51,7.51,0,0,1,1.06.35,1.45,1.45,0,0,0,.55.16,1,1,0,0,1,.56.2A27.43,27.43,0,0,1,65.4,63.47Z"/>
  </g>
</svg>
