<svg id="Ebene_1" data-name="Ebene 1" xmlns="http://www.w3.org/2000/svg" width="96" height="96" viewBox="0 0 96 96">
  <defs>
    <style>
      .solid-dark {
        fill: #5b6166;
      }
    </style>
  </defs>
  <g id="actDrawing">
    <path class="solid-dark" d="M19.26,65.43C15.64,74.53,6.17,73,7.91,77.84c1.06,3,14.1,6.21,23.64,4.45,10.19-1.88,17.68-11.49,7.71-21.46C27.34,48.91,20.8,61.54,19.26,65.43Z"/>
    <path class="solid-dark" d="M85,14.32c-3.36-3.48-19.24,1.24-34.33,14.25-2.51,2.15-7.86,6.25-7,7.75.44.73,5.16,4.55,10,9.32S61.49,55,63.31,55.89c1.38.71,5.36-4.81,7.46-7.28C83.62,33.48,89,18.42,85,14.32Z"/>
    <path class="solid-dark" d="M41.61,38.23c-1.7-.27-7.3,12.53-7.15,13.23.54,2.44,2,1.61,7,6.67,4.85,4.85,3.75,5.69,6.15,6.73.69.29,13.41-6,13.33-7.19S43.3,38.5,41.61,38.23Z"/>
  </g>
</svg>
