<svg id="Ebene_1" data-name="Ebene 1" xmlns="http://www.w3.org/2000/svg" width="96" height="96" viewBox="0 0 96 96">
  <defs>
    <style>
      .solid-light_border-thick {
        fill: #d4d7d8;
        stroke: #5b6166;
        stroke-linecap: round;
        stroke-linejoin: round;
        stroke-width: 3px;
      }

      .solid-dark {
        fill: #5b6166;
      }
    </style>
  </defs>
  <g id="actExplosion">
    <g>
      <polygon class="solid-light_border-thick" points="48.63 30.29 59.57 24.09 59.54 36.43 48.59 42.63 48.63 30.29"/>
      <polygon class="solid-light_border-thick" points="37.61 24.09 48.55 17.89 59.57 24.09 48.63 30.29 37.61 24.09"/>
      <polygon class="solid-light_border-thick" points="48.63 30.29 48.59 42.63 37.57 36.43 37.61 24.09 48.63 30.29"/>
    </g>
    <g>
      <polygon class="solid-light_border-thick" points="69.62 47.54 80.56 41.34 80.53 53.68 69.58 59.88 69.62 47.54"/>
      <polygon class="solid-light_border-thick" points="58.6 41.34 69.54 35.13 80.56 41.34 69.62 47.54 58.6 41.34"/>
      <polygon class="solid-light_border-thick" points="69.62 47.54 69.58 59.88 58.56 53.68 58.6 41.34 69.62 47.54"/>
    </g>
    <g>
      <polygon class="solid-light_border-thick" points="48.61 65.29 59.55 59.09 59.52 71.43 48.57 77.64 48.61 65.29"/>
      <polygon class="solid-light_border-thick" points="37.59 59.09 48.53 52.88 59.55 59.09 48.61 65.29 37.59 59.09"/>
      <polygon class="solid-light_border-thick" points="48.61 65.29 48.57 77.64 37.55 71.43 37.59 59.09 48.61 65.29"/>
    </g>
    <g>
      <polygon class="solid-light_border-thick" points="27.61 47.91 38.55 41.71 38.52 54.06 27.57 60.26 27.61 47.91"/>
      <polygon class="solid-light_border-thick" points="16.59 41.71 27.54 35.51 38.55 41.71 27.61 47.91 16.59 41.71"/>
      <polygon class="solid-light_border-thick" points="27.61 47.91 27.57 60.26 16.55 54.06 16.59 41.71 27.61 47.91"/>
    </g>
    <polygon class="solid-dark" points="14 47 10 47 10 44.01 1.36 49 10 53.99 10 51 14 51 14 47"/>
    <polygon class="solid-dark" points="83 51 87 51 87 53.99 95.64 49 87 44.01 87 47 83 47 83 51"/>
    <polygon class="solid-dark" points="51 13 51 9 54 9 48.99 0.36 43.99 9 47 9 47 13 51 13"/>
    <polygon class="solid-dark" points="46 83 46 87 42.98 87 48 95.64 53.02 87 50 87 50 83 46 83"/>
  </g>
</svg>
