<svg id="Ebene_1" data-name="Ebene 1" xmlns="http://www.w3.org/2000/svg" width="96" height="96" viewBox="0 0 96 96">
  <defs>
    <style>
      .solid-dark {
        fill: #5b6166;
      }
    </style>
  </defs>
  <g id="actHelp">
    <path class="solid-dark" d="M48,10A38,38,0,1,1,10,48,38,38,0,0,1,48,10m0-7A45,45,0,1,0,93,48,45.05,45.05,0,0,0,48,3Zm3.16,54.57V53.41a5.22,5.22,0,0,1,.92-3.26c.62-.9,1-1.35,3.3-3.08,3.4-2.42,5.44-4.28,6.65-6.22a12.8,12.8,0,0,0,2-6.91c0-4-1.67-8.33-4.62-10.73s-6.85-3.74-11.85-3.74A30.33,30.33,0,0,0,32,23.82l2.25,9.49c5-2.71,9-3.63,12.64-3.63a8.29,8.29,0,0,1,4.88,1.24,4,4,0,0,1,1.55,3.6,6.77,6.77,0,0,1-1.15,3.95,16.92,16.92,0,0,1-4.38,4.18,19.43,19.43,0,0,0-5.46,5.49,9.68,9.68,0,0,0-1.69,5.42v4Zm-10.8,17a7.53,7.53,0,0,0,5.51,1.93,7.26,7.26,0,0,0,5.41-2,7.36,7.36,0,0,0,1.95-5.4,6.66,6.66,0,0,0-7.36-7.36,7.63,7.63,0,0,0-5.55,1.86,7.36,7.36,0,0,0-1.9,5.5A7.34,7.34,0,0,0,40.36,74.6Z"/>
  </g>
</svg>
