<svg id="Ebene_1" data-name="Ebene 1" xmlns="http://www.w3.org/2000/svg" width="96" height="96" viewBox="0 0 96 96">
  <defs>
    <style>
      .solid-dark {
        fill: #5b6166;
      }
    </style>
  </defs>
  <g id="actMeasureGrid">
    <path class="solid-dark" d="M49,9.69l-8,4.5-3,1.69-8,4.5-3,1.68-9,5.07-3,1.68-8,4.5L4,35V65l3-1.75,8-4.67,3-1.75,9-5.25,3-1.75,8-4.66,3-1.75,8-4.67L52,37V8Zm-11,9.6v10l-8,4.57v-10ZM27,25.57v10l-9,5.14v-10ZM7,37l8-4.57v10L7,47ZM7,60V50.25l8-4.67v9.85Zm11-6.29V43.83l9-5.25v10Zm12-6.85v-10l8-4.66V42.29ZM49,36l-8,4.57V30.42l8-4.67Zm-8-8.43v-10L49,13V23Zm48-.22L81,22.8l-3-1.71L69,16l-3-1.71L58,9.71,55,8V37l3,1.7,8,4.54L69,45l9,5.1,3,1.71,8,4.54L92,58V29.06ZM78,24V34.18l-9-5V19ZM58,13l8,4.38V27.47L58,23Zm0,23V25.7l8,4.54V40.47Zm11,6.15V32l9,5.1V47.18ZM89,53.32l-8-4.47V38.76l8,4.54ZM81,35.85V25.62L89,30V40.32ZM54,41H53L6,69,42,91,90,62ZM42.15,51l8.78,5.11-8.87,5.11L33.3,56.1ZM30.77,57.56l8.76,5.09-8.86,5.12-8.76-5.09Zm11.29,6.56,8.79,5.11L42,74.35l-8.8-5.11Zm2.53-1.46,8.86-5.12,8.8,5.11-8.87,5.12ZM56,56.08,64.85,51l8.79,5.12-8.86,5.11Zm6.34-6.58-8.86,5.12-8.78-5.11,8.85-5.12ZM11.49,68.71l7.89-4.56,8.76,5.08L20,73.94Zm10.94,6.74,8.24-4.75,8.79,5.11L31,80.71ZM42,87.49l-8.54-5.27L42,77.28l8.58,5ZM53,80.77l-8.53-5,8.87-5.12,8.31,4.83ZM64.15,74l-8.24-4.79,8.86-5.12,8,4.67Zm11.12-6.74-8-4.63,8.87-5.12L84,62Z"/>
  </g>
</svg>
