<svg id="Ebene_1" data-name="Ebene 1" xmlns="http://www.w3.org/2000/svg" width="96" height="96" viewBox="0 0 96 96">
  <defs>
    <style>
      .solid-dark {
        fill: #5b6166;
      }

      .border-thick {
        fill: none;
        stroke: #5b6166;
        stroke-linejoin: round;
        stroke-width: 3px;
      }
    </style>
  </defs>
  <g id="actMeasure">
    <path class="solid-dark" d="M82.29,16.32h0a2,2,0,0,1-3.69-1.53,2,2,0,0,1,1.08-1.08l-1.15-2.78L40.11,31.18c-5.25,2.77-4.91,3.6.76,1.84l32-9.92L63,55.13c-1.76,5.67-.93,6,1.84.76L85.07,17.47Z"/>
    <path class="solid-dark" d="M85.07,13.64a5,5,0,1,0-2.71,6.53A5,5,0,0,0,85.07,13.64ZM81.21,17.4a2,2,0,1,1,1.08-2.61A2,2,0,0,1,81.21,17.4Z"/>
    <rect class="solid-dark" x="83.93" y="4.83" width="4" height="10.49" rx="2" transform="translate(32.29 -57.81) rotate(45)"/>
    <path class="border-thick" d="M73.08,34.46A20,20,0,0,1,60.22,15.78"/>
    <polygon class="solid-dark" points="70.95 78.08 63.88 85.15 61.76 83.03 68.83 75.96 65.29 72.43 61.76 75.96 59.64 73.84 63.17 70.3 59.64 66.77 56.1 70.3 53.98 68.18 57.52 64.65 56.81 63.94 53.98 61.11 46.91 68.18 44.79 66.06 51.86 58.99 48.32 55.45 44.79 58.99 42.67 56.87 46.2 53.33 42.67 49.8 39.13 53.33 37.01 51.21 40.55 47.68 37.01 44.14 29.94 51.21 27.82 49.09 34.89 42.02 31.35 38.48 27.82 42.02 25.7 39.9 29.23 36.36 25.7 32.83 22.16 36.36 20.04 34.24 23.57 30.71 20.04 27.17 12.26 34.95 10.14 32.83 17.92 25.05 15.09 22.22 3.77 33.53 45.49 75.25 62.47 92.22 73.78 80.91 70.95 78.08"/>
  </g>
</svg>
