<svg id="Ebene_1" data-name="Ebene 1" xmlns="http://www.w3.org/2000/svg" width="96" height="96" viewBox="0 0 96 96">
  <defs>
    <style>
      .solid-dark {
        fill: #5b6166;
      }

      .solid-light {
        fill: #d4d7d8;
      }

      .solid-medium {
        fill: #acafb2;
      }
    </style>
  </defs>
  <g id="actOverlay">
    <path class="solid-dark" d="M32.75,34.08V49.74c0,1.64,2,2.71,3.37,2.71H48.46v20.8H30.22a4,4,0,0,1-4-4v-33H12.11c-1.62,0-3.86-1.22-3.86-3.11V15.22a4,4,0,0,1,4-4H67.28a4,4,0,0,1,4,4v15.4h-35A3.46,3.46,0,0,0,32.75,34.08Z"/>
    <path class="solid-light" d="M87.75,34.08V49.67a2.82,2.82,0,0,1-2.93,2.78H72.91V81.29a3.46,3.46,0,0,1-3.46,3.46H51.93a3.46,3.46,0,0,1-3.47-3.46v-8h1.82a4,4,0,0,0,4-4v-33H67.89a3.24,3.24,0,0,0,3.36-3.18V30.62h13A3.46,3.46,0,0,1,87.75,34.08Z"/>
    <path class="solid-medium" d="M71.25,30.62v2.45a3.24,3.24,0,0,1-3.36,3.18H54.25v33a4,4,0,0,1-4,4H48.46V52.45H36.12c-1.42,0-3.37-1.07-3.37-2.71V34.08a3.46,3.46,0,0,1,3.46-3.46Z"/>
  </g>
</svg>
