<svg id="actPseudoVR" data-name="actPseudoVR" xmlns="http://www.w3.org/2000/svg" viewBox="0 0 88 71.71" width="88" height="71.71">
  <defs>
    <style>
      .border-thin{
        fill: none;
        stroke: #5b6166;
        stroke-width: 1.5px;
		stroke-linejoin: round;
      }

      .solid-dark {
        fill: #5b6166;
      }
    </style>
  </defs>
  <g id="actPseudoVR-3" data-name="actPseudoVR">
    <path class="solid-dark" d="M72.85,37.69A19.12,19.12,0,0,1,88,45.16v-38C88,4.33,85.75,0,83,0H5C2.25,0,0,4.33,0,7.14V47.83C0,50.64,2.25,52,5,52H32.55c1.91-10.23,6.59-19.71,12.08-19.71,4.78,0,8.94,7.19,11.2,15.8A19.14,19.14,0,0,1,72.85,37.69Zm-3.71-26.1A11.45,11.45,0,1,1,57.83,23,11.39,11.39,0,0,1,69.14,11.59ZM18.86,34.48A11.45,11.45,0,1,1,30.17,23,11.39,11.39,0,0,1,18.86,34.48Z"/>
	<g>
		<circle class="border-thin" cx="72.88" cy="56.85" r="14.12"/>
		<line class="border-thin" x1="72.72" y1="42.73" x2="72.72" y2="54.02"/>
		<line class="border-thin" x1="72.72" y1="59.82" x2="72.72" y2="70.79"/>
		<circle class="solid-dark" cx="72.73" cy="56.92" r="1.44"/>
		<line class="border-thin" x1="58.69" y1="57.08" x2="69.98" y2="57.08"/>
		<line class="border-thin" x1="75.78" y1="57.08" x2="86.75" y2="57.08"/>
    </g>
  </g>
</svg>