<svg id="Ebene_1" data-name="Ebene 1" xmlns="http://www.w3.org/2000/svg" width="96" height="96" viewBox="0 0 96 96">
  <defs>
    <style>
      .solid-dark {
        fill: #5b6166;
      }
    </style>
  </defs>
  <g id="actSaveCameraParams">
    <path class="solid-dark" d="M46.09,23.13l-8.35,5.68a5.51,5.51,0,0,0-2-4.21,9.79,9.79,0,1,0-11.89-1.26l-5.14.05a8.33,8.33,0,0,0,2.13-5.62A8.41,8.41,0,1,0,7,24.22a5.58,5.58,0,0,0-2.87,4.91l.11,11.21A5.8,5.8,0,0,0,10,46H32.27a5.92,5.92,0,0,0,5.58-6l8.46,5.52A2.73,2.73,0,0,0,49,42.71V26A2.92,2.92,0,0,0,46.09,23.13Zm-33.62.32A5.61,5.61,0,1,1,18,17.79,5.6,5.6,0,0,1,12.47,23.45Zm18.21-.16a7,7,0,1,1,7-7.08A7,7,0,0,1,30.68,23.29Z"/>
    <path class="solid-dark" d="M52.68,31.36l-.83-3.91,7.82-1.67.83,3.91ZM68.33,28l-.84-3.92,7.83-1.66.83,3.91ZM84,24.69l-.84-3.91,7.78-1.66L91.75,23Z"/>
    <path class="solid-dark" d="M91.28,47.79l-7.84-1.6.8-3.92,7.84,1.6ZM75.6,44.59,67.76,43l.8-3.92,7.84,1.6Zm-15.68-3.2L52.08,39.8l.8-3.92,7.84,1.59Z"/>
    <path class="solid-dark" d="M55,55h0V69H35V55H30.25A1.25,1.25,0,0,0,29,56.25v33.5A1.25,1.25,0,0,0,30.25,91h33.5A1.25,1.25,0,0,0,65,89.75V65.52a1.26,1.26,0,0,0-.37-.89Z"/>
    <rect class="solid-dark" x="47" y="55" width="5" height="11" rx="0.53"/>
  </g>
</svg>
