<svg id="Ebene_1" data-name="Ebene 1" xmlns="http://www.w3.org/2000/svg" width="96" height="96" viewBox="0 0 96 96">
  <defs>
    <style>
      .solid-dark {
        fill: #5b6166;
      }
    </style>
  </defs>
  <g id="actScreenShot">
    <path class="solid-dark" d="M79.63,84H17.38A10.54,10.54,0,0,1,7,73.36V35.94C7,30.18,11.61,25,17.24,25h5.12c0-5.81,4.55-12,10.24-12H63.31c5.63,0,10.24,6.19,10.24,12h6.08C85.33,25,90,30.27,90,36.12V73.36A10.54,10.54,0,0,1,79.63,84ZM48.15,30.6C36.59,30.6,28.29,40.15,28.29,52s8.3,21.39,19.86,21.39S67.78,63.82,67.78,52,59.72,30.6,48.15,30.6Zm0,32.63c-5.65,0-10.1-5.62-10.1-11.41s4.45-11.16,10.1-11.16S58,46,58,51.82,53.81,63.23,48.15,63.23Z"/>
  </g>
</svg>
