<svg id="Ebene_1" data-name="Ebene 1" xmlns="http://www.w3.org/2000/svg" width="96" height="96" viewBox="0 0 96 96">
  <defs>
    <style>
      .solid-dark {
        fill: #5b6166;
      }
    </style>
  </defs>
  <g id="actTeleport">
    <path class="solid-dark" d="M53.13,24H40.87A5.75,5.75,0,0,0,35,29.63V49.1a5.73,5.73,0,0,0,5,5.58v.11l1.77,15.7c0,1.94,1.94,3.51,4.33,3.51h1.76c2.39,0,4.33-1.57,4.33-3.51L54,54.79v-.11a5.73,5.73,0,0,0,5-5.58V29.63A5.75,5.75,0,0,0,53.13,24Z"/>
    <circle class="solid-dark" cx="46.96" cy="13.96" r="7.96"/>
    <path class="solid-dark" d="M86.81,57.4a20.32,20.32,0,0,0-4.42-5.12,36.44,36.44,0,0,0-11.17-6.09A58.24,58.24,0,0,0,63,43.93v3.49a55,55,0,0,1,6.85,2.28,33.25,33.25,0,0,1,9.58,5.94c2.68,2.44,4.52,5.57,4.4,8.67s-2,6-4.7,8.33A31.83,31.83,0,0,1,69.5,78a56.76,56.76,0,0,1-11.07,2.85,71.37,71.37,0,0,1-11.51.9,71.58,71.58,0,0,1-11.52-.9A56.67,56.67,0,0,1,24.34,78a32,32,0,0,1-9.64-5.36C12,70.36,10,67.4,10,64.31s1.73-6.23,4.41-8.67A33.06,33.06,0,0,1,24,49.7a54.47,54.47,0,0,1,7-2.33V43.9a57.92,57.92,0,0,0-8.39,2.29,36.4,36.4,0,0,0-11.16,6.09A20.16,20.16,0,0,0,7,57.4a13.54,13.54,0,0,0-.19,13.92,20.68,20.68,0,0,0,4.32,5.35,37.58,37.58,0,0,0,11.11,6.67,67.72,67.72,0,0,0,24.66,4.41,67.71,67.71,0,0,0,24.65-4.41,37.58,37.58,0,0,0,11.11-6.67A20.68,20.68,0,0,0,87,71.32a14.28,14.28,0,0,0,1.83-7A14.1,14.1,0,0,0,86.81,57.4Z"/>
  </g>
</svg>
