<svg id="Ebene_1" data-name="Ebene 1" xmlns="http://www.w3.org/2000/svg" xmlns:xlink="http://www.w3.org/1999/xlink" width="96" height="96" viewBox="0 0 96 96">
  <defs>
    <style>
      .solid-dark {
        fill: #5b6166;
      }

      .solid-medium {
        fill: #acafb2;
      }

      .solid-light {
        fill: #d4d7d8;
      }

      .gradient-left-to-right {
        fill: url(#left-to-right);
      }
    </style>
    <linearGradient id="left-to-right" x1="23.33" y1="59.37" x2="80.35" y2="59.37" gradientUnits="userSpaceOnUse">
      <stop offset="0" stop-color="#e2e3e4"/>
      <stop offset="1" stop-color="#8d9091"/>
    </linearGradient>
  </defs>
  <g id="actTriTeQ3">
    <path class="solid-dark" d="M65.44,88.72,63,88.42l17.2-49.86a1.5,1.5,0,0,0-1.06-2L53.5,30.4a1.5,1.5,0,0,0-1.76.93l-2.47,6.58a2.1,2.1,0,0,1-2.45,1.31L33.57,36.1V11.44L85.89,27.08Z"/>
    <path class="solid-medium" d="M33.57,36.1,14.42,38.21,12.8,41a1.51,1.51,0,0,1-1.75.69L3.5,39.41V20.16l30.07-8.72Z"/>
    <path class="solid-medium" d="M68.24,91.14,24.07,82.25a.92.92,0,0,1-.73-.89V81.2l41.22,7.36a1,1,0,0,0,1.16-.69L85.89,27.08,33.57,11.44V4.83L92.5,23.47,70.11,90.06A1.64,1.64,0,0,1,68.24,91.14Z"/>
    <polygon class="solid-light" points="3.5 20.16 3.5 15.35 33.57 4.83 33.57 11.44 3.5 20.16"/>
    <path class="gradient-left-to-right" d="M35.15,41.64,23.34,81.2l40.22,7.18a.76.76,0,0,0,.86-.52L80.28,38.54a1.5,1.5,0,0,0-1.08-1.92L53.5,30.4a1.5,1.5,0,0,0-1.76.93l-2.25,6a2.87,2.87,0,0,1-3.36,1.78l-12.43-3a.82.82,0,0,0-.27,0l-10.1,1.11,11.31,3.47A.75.75,0,0,1,35.15,41.64Z"/>
    <g>
      <polygon class="solid-dark" points="58.05 53.81 58 71.36 42.84 78.15 42.89 58.59 58.05 53.81"/>
      <path class="solid-dark" d="M57.05,55.18l0,15.53-13.17,5.9,0-17.28,13.17-4.15m1-1.37L42.89,58.6l0,19.55L58,71.36l0-17.55Z"/>
    </g>
    <g>
      <polygon class="solid-dark" points="41.01 58.75 40.96 78.15 25.81 71.41 25.86 54.01 41.01 58.75"/>
      <path class="solid-dark" d="M26.86,55.37,40,59.49l0,17.12L26.81,70.76l.05-15.39m-1-1.36-.05,17.4L41,78.15l0-19.4L25.86,54Z"/>
    </g>
    <g>
      <polygon class="solid-dark" points="57.05 52.01 42.01 56.75 26.86 52.01 41.91 48.26 57.05 52.01"/>
      <path class="solid-dark" d="M41.91,49.29l11.45,2.83L42,55.7,30.56,52.12l11.35-2.83m0-1L26.86,52,42,56.75l15-4.74L41.91,48.26Z"/>
    </g>
  </g>
</svg>
