<svg id="Ebene_1" data-name="Ebene 1" xmlns="http://www.w3.org/2000/svg" width="96" height="96" viewBox="0 0 96 96">
  <defs>
    <style>
      .solid-dark {
        fill: #5b6166;
      }
    </style>
  </defs>
  <g id="actVR">
    <path class="solid-dark" d="M87,20H9c-2.78,0-5,4.33-5,7.14V67.83C4,70.64,6.25,72,9,72H36.55c1.91-10.23,6.59-19.71,12.08-19.71S58.8,61.77,60.7,72H87c2.78,0,5-1.36,5-4.17V27.14C92,24.33,89.75,20,87,20ZM22.86,54.48A11.45,11.45,0,1,1,34.17,43,11.39,11.39,0,0,1,22.86,54.48Zm50.28,0A11.45,11.45,0,1,1,84.46,43,11.38,11.38,0,0,1,73.14,54.48Z"/>
  </g>
</svg>
