<svg id="Ebene_1" data-name="Ebene 1" xmlns="http://www.w3.org/2000/svg" width="96" height="96" viewBox="0 0 96 96">
  <defs>
    <style>
      .solid-dark {
        fill: #5b6166;
      }

      .border-thick {
        fill: none;
        stroke: #5b6166;
        stroke-linejoin: round;
        stroke-width: 3px;
      }
    </style>
  </defs>
  <g id="actZoomObject">
    <path class="solid-dark" d="M87.17,81.41,65.71,59.82a7.18,7.18,0,0,0-1.49-1.12,33.71,33.71,0,0,0,7.43-21.18C71.65,19.09,57,4.1,38.91,4.1S6.17,19.09,6.17,37.52,20.85,71,38.91,71a32,32,0,0,0,15.57-4,6.93,6.93,0,0,0,1.6,2.58L77.55,91.09a6.78,6.78,0,0,0,9.62,0A6.87,6.87,0,0,0,87.17,81.41ZM12.11,37.52c0-15.25,12-27.66,26.8-27.66S65.7,22.27,65.7,37.52s-12,27.67-26.79,27.67S12.11,52.78,12.11,37.52Z"/>
    <polygon class="border-thick" points="39 36.91 54.5 28.37 54.5 45.53 38.95 54.78 39 36.91"/>
    <polygon class="border-thick" points="23.56 27.98 38.96 19.63 54.5 28.37 39 36.91 23.56 27.98"/>
    <polygon class="border-thick" points="39 36.91 38.95 54.78 23.51 45.84 23.56 27.98 39 36.91"/>
  </g>
</svg>
