<svg id="Ebene_1" data-name="Ebene 1" xmlns="http://www.w3.org/2000/svg" width="96" height="96" viewBox="0 0 96 96">
  <defs>
    <style>
      .solid-dark {
        fill: #5b6166;
      }
    </style>
  </defs>
  <g id="actZoomCloser">
    <path class="solid-dark" d="M87.17,81.41,65.71,59.82a7.18,7.18,0,0,0-1.49-1.12,33.71,33.71,0,0,0,7.43-21.18C71.65,19.09,57,4.1,38.91,4.1S6.17,19.09,6.17,37.52,20.85,71,38.91,71a32,32,0,0,0,15.57-4,6.93,6.93,0,0,0,1.6,2.58L77.55,91.09a6.78,6.78,0,0,0,9.62,0A6.87,6.87,0,0,0,87.17,81.41ZM12.11,37.52c0-15.25,12-27.66,26.8-27.66S65.7,22.27,65.7,37.52s-12,27.67-26.79,27.67S12.11,52.78,12.11,37.52Z"/>
    <path class="solid-dark" d="M56.29,32.73A2.32,2.32,0,0,0,54.56,32H44V21.54a2.52,2.52,0,0,0-.54-1.63,2.49,2.49,0,0,0-2-.91h-5a2.54,2.54,0,0,0-1.58.5,2.4,2.4,0,0,0-1,1.94V32H23.53A2.45,2.45,0,0,0,21,34.5v5A2.5,2.5,0,0,0,21.47,41a2.38,2.38,0,0,0,2,1H34V52.47A2.45,2.45,0,0,0,36.5,55h5A2.5,2.5,0,0,0,43,54.53a2.38,2.38,0,0,0,1-2V42H54.45a2.53,2.53,0,0,0,1.64-.54,2.46,2.46,0,0,0,.91-2v-5a2.47,2.47,0,0,0-.71-1.77Zm-.1,0"/>
  </g>
</svg>
